HIERARCHY
ROOT Hips
{
  OFFSET 0 89.5177 0.535
  CHANNELS 6 Xposition Yposition Zposition Zrotation Xrotation Yrotation
  JOINT Spine
  {
    OFFSET 12.0259 -0.162855 1.69034e-005
    CHANNELS 3 Zrotation Xrotation Yrotation
    JOINT Spine1
    {
      OFFSET 15.3169 -0.0121922 0
      CHANNELS 3 Zrotation Xrotation Yrotation
      JOINT Spine2
      {
        OFFSET 15.3176 -0.0121908 0
        CHANNELS 3 Zrotation Xrotation Yrotation
        JOINT Neck
        {
          OFFSET 19.9142 1.56338 0
          CHANNELS 3 Zrotation Xrotation Yrotation
          JOINT Head
          {
            OFFSET 6.92651 0 0
            CHANNELS 3 Zrotation Xrotation Yrotation
            End Site
            {
              OFFSET 20.7666 0 0
            }
          }
          JOINT LeftShoulder
          {
            OFFSET -6.20654 0.708824 7.28219
            CHANNELS 3 Zrotation Xrotation Yrotation
            JOINT LeftArm
            {
              OFFSET 14.108 0 -1.52588e-005
              CHANNELS 3 Zrotation Xrotation Yrotation
              JOINT LeftForeArm
              {
                OFFSET 28.5802 0 0
                CHANNELS 3 Zrotation Xrotation Yrotation
                JOINT LeftHand
                {
                  OFFSET 27.092 0 0
                  CHANNELS 3 Zrotation Xrotation Yrotation
                  End Site
                  {
                    OFFSET 9.55928 -0.186424 0.145352
                  }
                }
              }
            }
          }
          JOINT RightShoulder
          {
            OFFSET -6.20654 0.708866 -7.28218
            CHANNELS 3 Zrotation Xrotation Yrotation
            JOINT RightArm
            {
              OFFSET 14.108 0 1.52588e-005
              CHANNELS 3 Zrotation Xrotation Yrotation
              JOINT RightForeArm
              {
                OFFSET 28.5802 0 0
                CHANNELS 3 Zrotation Xrotation Yrotation
                JOINT RightHand
                {
                  OFFSET 27.092 0 0
                  CHANNELS 3 Zrotation Xrotation Yrotation
                  End Site
                  {
                    OFFSET 9.55929 -0.186417 -0.145354
                  }
                }
              }
            }
          }
        }
      }
    }
  }
  JOINT LeftUpLeg
  {
    OFFSET 0.005 -0.535 8.837
    CHANNELS 3 Zrotation Xrotation Yrotation
    JOINT LeftLeg
    {
      OFFSET 39.9035 0 0
      CHANNELS 3 Zrotation Xrotation Yrotation
      JOINT LeftFoot
      {
        OFFSET 39.6689 0 0
        CHANNELS 3 Zrotation Xrotation Yrotation
        JOINT LeftToe
        {
          OFFSET 10.1624 13.6296 0
          CHANNELS 3 Zrotation Xrotation Yrotation
          End Site
          {
            OFFSET 8.38147 0 0
          }
        }
      }
    }
  }
  JOINT RightUpLeg
  {
    OFFSET 0.005 -0.535 -8.837
    CHANNELS 3 Zrotation Xrotation Yrotation
    JOINT RightLeg
    {
      OFFSET 39.9035 0 0
      CHANNELS 3 Zrotation Xrotation Yrotation
      JOINT RightFoot
      {
        OFFSET 39.6689 0 0
        CHANNELS 3 Zrotation Xrotation Yrotation
        JOINT RightToe
        {
          OFFSET 10.1624 13.6296 0
          CHANNELS 3 Zrotation Xrotation Yrotation
          End Site
          {
            OFFSET 8.38147 0 0
          }
        }
      }
    }
  }
}
MOTION
Frames:	13
Frame Time:	0.0333333
545.427 89.6218 -169.914 135.181 -82.3055 42.5496 -1.65477 -0.169654 -0.617978 -3.31129 -0.320921 -1.24041 -3.31129 -0.320921 -1.24042 -8.30708e-012 -9.0191e-006 -5.27751e-005 22.596 16.857 -4.56696 -179.844 -9.62754 -89.0718 -8.59676 -53.9983 10.5628 -4.03378e-006 -1.59028e-014 -1.19271e-015 -40.0519 -16.6552 -33.4028 -179.701 7.05481 87.5654 46.039 55.8779 -53.7646 -0.886051 -3.18055e-015 7.95139e-016 -32.3221 23.2145 23.909 -10.7987 8.08774 -177.757 -22.9875 1.59028e-015 -1.59028e-015 22.3013 2.83474 -5.72757 90 -9.93923e-016 1.59028e-015 -9.85092 -8.65368 -177.656 -19.8939 -3.97569e-016 -0 12.6835 -0.228664 0.438648 90 1.49089e-016 -7.95139e-016 
545.477 89.6227 -170.001 135.082 -82.2429 42.4411 -1.66742 -0.177534 -0.624741 -3.3367 -0.336342 -1.2542 -3.3367 -0.336342 -1.25421 -8.30708e-012 -9.0191e-006 -5.27751e-005 22.311 16.3085 -4.53086 -179.854 -9.64859 -89.1264 -8.58725 -53.9972 10.5664 -4.03378e-006 -9.54166e-015 7.95139e-016 -40.0471 -16.6618 -33.4308 -179.698 7.09012 87.5535 46.1708 55.9411 -53.8473 -0.822431 6.36111e-015 3.97569e-016 -32.3224 23.1271 23.8484 -10.7685 8.04726 -177.717 -22.9484 0 1.59028e-015 22.3224 2.84381 -5.74647 90 1.98785e-015 -3.18055e-015 -9.79876 -8.58205 -177.59 -19.848 0 1.98785e-016 12.661 -0.157716 0.297653 90 -2.36057e-016 3.97569e-016 
545.518 89.619 -170.092 134.923 -82.2005 42.2988 -1.68087 -0.180967 -0.632765 -3.36366 -0.342823 -1.27038 -3.36366 -0.342823 -1.27039 -8.30907e-012 -9.0191e-006 -5.27751e-005 22.2649 16.3195 -4.52184 -179.858 -9.61135 -89.1448 -8.5945 -53.9391 10.4903 -4.03378e-006 3.18055e-015 7.95139e-016 -40.1429 -16.7265 -33.5418 -179.695 7.1208 87.5394 45.9299 55.8701 -53.5878 -0.792494 9.54166e-015 3.18055e-015 -32.3536 23.2572 23.9324 -10.7119 8.038 -177.699 -22.9193 -1.59028e-015 7.95139e-016 22.3523 2.86705 -5.79421 90 1.98785e-016 -0 -9.74463 -8.59465 -177.569 -19.8293 7.95139e-016 9.93923e-017 12.6665 -0.148466 0.279218 90 2.48481e-016 -0 
545.548 89.6122 -170.198 134.804 -82.2215 42.1914 -1.68629 -0.183564 -0.629606 -3.37452 -0.348048 -1.26416 -3.37452 -0.348047 -1.26417 -8.30669e-012 -9.0191e-006 -5.27751e-005 22.2135 16.3676 -4.57657 -179.856 -9.65217 -89.1415 -8.57785 -53.945 10.4716 -4.03378e-006 -9.54166e-015 1.59028e-015 -40.1812 -16.684 -33.6184 -179.708 7.07797 87.6318 46.2104 55.8896 -53.7717 -0.801275 -3.18055e-015 3.57812e-015 -32.3216 23.1774 23.9847 -10.6308 7.98037 -177.694 -22.9543 -1.59028e-015 -1.59028e-015 22.3751 2.8363 -5.73176 90 5.96354e-016 -1.59028e-015 -9.66398 -8.63552 -177.572 -19.8835 0 -0 12.838 -0.181735 0.345433 90 3.72721e-017 -0 
545.602 89.609 -170.277 134.732 -82.1709 42.099 -1.69767 -0.195029 -0.630259 -3.39736 -0.370966 -1.25644 -3.39736 -0.370966 -1.25645 -8.30788e-012 -9.0191e-006 -5.27751e-005 22.0789 16.4156 -4.52964 -179.864 -9.66533 -89.1939 -8.48828 -54.0228 10.4977 -4.03378e-006 -6.36111e-015 -1.98785e-015 -40.0248 -16.547 -33.4477 -179.716 7.07229 87.6947 46.2916 55.8665 -53.8266 -0.82804 0 3.57812e-015 -32.2824 23.214 23.979 -10.6185 8.06243 -177.608 -22.9423 -1.59028e-015 1.59028e-015 22.4527 2.91451 -5.89184 90 0 -0 -9.62548 -8.56841 -177.487 -19.8595 -7.95139e-016 -9.93923e-017 12.7383 -0.103606 0.190023 90 -1.73937e-016 7.95139e-016 
545.639 89.6068 -170.364 134.571 -82.1571 41.9412 -1.69716 -0.198935 -0.631694 -3.39641 -0.378642 -1.26595 -3.39641 -0.378642 -1.26596 -8.30629e-012 -9.0191e-006 -5.27751e-005 21.9429 16.5039 -4.52439 -179.878 -9.67115 -89.2709 -8.44533 -54.0497 10.5199 -4.03378e-006 -9.54166e-015 1.98785e-015 -40.1875 -16.5303 -33.4938 -179.717 7.10713 87.7146 46.438 55.9482 -53.9553 -0.797793 -3.18055e-015 -1.98785e-015 -32.2858 23.1088 23.8801 -10.567 7.86407 -177.633 -22.964 -1.59028e-015 -0 22.3937 2.80403 -5.66616 90 0 -0 -9.54019 -8.59565 -177.463 -19.8361 -3.97569e-016 1.98785e-016 12.7963 -0.110537 0.203832 90 -2.48481e-017 3.97569e-016 
545.674 89.6028 -170.442 134.719 -82.1402 42.0883 -1.70504 -0.198957 -0.633129 -3.41222 -0.378472 -1.27448 -3.41222 -0.378472 -1.27449 -8.30748e-012 -9.0191e-006 -5.27751e-005 21.8007 16.8386 -4.57452 -179.882 -9.73049 -89.2993 -8.63794 -53.9636 10.3512 -4.03379e-006 0 -7.95139e-016 -40.2231 -16.5873 -33.5867 -179.715 7.17189 87.7172 45.9467 55.843 -53.5752 -0.751976 3.18055e-015 -1.78906e-015 -32.305 23.2878 23.981 -10.5478 7.88768 -177.595 -22.9634 0 -0 22.4224 2.82442 -5.708 90 -5.96354e-016 1.59028e-015 -9.5093 -8.58566 -177.437 -19.8248 0 9.93923e-017 12.842 -0.122044 0.226736 90 9.93923e-017 3.97569e-016 
545.712 89.5999 -170.514 135.059 -82.1367 42.4274 -1.71205 -0.199986 -0.633781 -3.42623 -0.380474 -1.27307 -3.42623 -0.380473 -1.27308 -8.30708e-012 -9.0191e-006 -5.27751e-005 21.591 17.5244 -4.6709 -179.896 -9.8315 -89.3876 -8.67333 -54.096 10.3637 -4.03379e-006 9.54166e-015 1.59028e-015 -40.1811 -16.5252 -33.5194 -179.733 7.13852 87.8546 46.3565 55.9111 -53.9358 -0.764546 -3.18055e-015 -2.18663e-015 -32.279 23.1864 23.9376 -10.5273 7.91133 -177.568 -22.9453 1.59028e-015 -0 22.4322 2.81426 -5.68742 90 1.19271e-015 1.59028e-015 -9.50198 -8.58057 -177.406 -19.8323 -3.97569e-016 1.98785e-016 12.9006 -0.123519 0.229658 90 4.96962e-017 3.97569e-016 
545.747 89.5976 -170.591 135.465 -82.1506 42.8127 -1.71799 -0.185613 -0.629429 -3.43794 -0.3518 -1.26396 -3.43794 -0.3518 -1.26397 -8.30708e-012 -9.0191e-006 -5.27751e-005 21.4356 18.766 -4.95583 -179.909 -9.82851 -89.4679 -8.6161 -54.3561 10.4053 -4.03379e-006 -9.54166e-015 1.19271e-015 -40.191 -16.3607 -33.4283 -179.747 7.17543 87.9735 46.6485 55.9993 -54.1836 -0.758035 0 2.18663e-015 -32.2077 23.1228 23.9349 -10.5144 8.01077 -177.494 -22.9476 -1.59028e-015 -3.18055e-015 22.5127 2.86457 -5.79062 90 9.93923e-016 1.59028e-015 -9.48348 -8.56607 -177.352 -19.839 7.95139e-016 -9.93923e-017 12.9418 -0.121107 0.224804 90 -2.98177e-016 7.95139e-016 
545.772 89.5958 -170.659 135.905 -82.1385 43.2576 -1.72207 -0.175874 -0.622597 -3.44597 -0.332488 -1.25002 -3.44597 -0.332487 -1.25002 -8.30748e-012 -9.0191e-006 -5.27751e-005 21.2892 20.4247 -5.39427 -179.915 -9.87148 -89.5046 -8.69658 -54.1993 10.3413 -4.03379e-006 1.59028e-014 1.19271e-015 -40.1562 -16.4471 -33.4511 -179.761 7.17993 88.0897 46.7685 56.0691 -54.211 -0.801862 6.36111e-015 -2.18663e-015 -32.1288 23.1623 23.8019 -10.5124 8.03564 -177.475 -22.9205 1.59028e-015 1.59028e-015 22.5202 2.87272 -5.80739 90 -3.97569e-016 -0 -9.47864 -8.48957 -177.329 -19.8089 -3.97569e-016 -9.93923e-017 12.9436 -0.103043 0.188946 90 -4.96962e-017 -0 
545.797 89.5952 -170.733 136.165 -82.1405 43.5161 -1.71681 -0.151043 -0.600992 -3.44274 -0.283504 -1.20606 -3.44274 -0.283503 -1.20607 -8.30748e-012 -9.0191e-006 -5.27751e-005 21.1495 22.2057 -5.88031 -179.909 -9.81913 -89.4683 -8.77525 -54.2131 10.2405 -4.03379e-006 -9.54166e-015 -3.97569e-016 -40.0618 -16.4356 -33.3384 -179.786 7.10787 88.2737 47.1712 56.1666 -54.2536 -0.922324 -3.18055e-015 -7.95139e-016 -32.0667 23.126 23.7365 -10.4599 7.95948 -177.482 -22.8733 1.59028e-015 7.95139e-016 22.4844 2.81022 -5.67994 90 -9.93923e-016 1.59028e-015 -9.45597 -8.41903 -177.289 -19.8028 -1.19271e-015 -2.98177e-016 12.8866 -0.0586867 0.100749 90 9.93923e-017 -0 
545.797 89.5957 -170.81 136.441 -82.1367 43.8202 -1.71163 -0.129805 -0.594325 -3.42453 -0.241332 -1.19207 -3.42453 -0.241332 -1.19208 -8.30708e-012 -9.0191e-006 -5.27751e-005 20.9381 24.0233 -6.2544 -179.911 -9.91471 -89.4858 -8.9738 -54.3936 10.1694 -4.03379e-006 -3.18055e-015 1.98785e-015 -40.2663 -16.5902 -33.5949 -179.802 7.03036 88.3853 47.2567 56.2714 -53.9528 -0.937253 0 5.96354e-016 -32.1222 23.2849 23.8779 -10.4024 7.78412 -177.566 -22.8291 0 -0 22.3911 2.67921 -5.41253 90 -1.19271e-015 -1.59028e-015 -9.43383 -8.39233 -177.314 -19.7953 0 4.96962e-016 12.9268 -0.0707388 0.124796 90 -3.23025e-016 -3.97569e-016 
545.813 89.5945 -170.883 136.491 -82.0723 43.8518 -1.71328 -0.103767 -0.583519 -3.42753 -0.189575 -1.16969 -3.42753 -0.189575 -1.1697 -8.30748e-012 -9.0191e-006 -5.27751e-005 20.6421 25.5708 -6.3892 -179.918 -9.87972 -89.5209 -9.12215 -54.4755 10.0667 -4.03379e-006 0 -1.59028e-015 -40.0951 -16.5363 -33.4467 -179.826 6.97596 88.5695 47.8134 56.4718 -53.943 -0.929745 6.36111e-015 5.96354e-016 -32.0302 23.2109 23.8478 -10.3948 7.84554 -177.51 -22.7912 1.59028e-015 -0 22.4543 2.75042 -5.55826 90 1.19271e-015 -1.59028e-015 -9.41005 -8.42441 -177.282 -19.7572 3.97569e-016 -2.98177e-016 12.9323 -0.0652637 0.113835 90 4.96962e-017 -0 
